<svg xmlns="http://www.w3.org/2000/svg" xmlns:xlink="http://www.w3.org/1999/xlink" version="1.1" x="0px" y="0px" viewBox="0 0 600 352.5" style="enable-background:new 0 0 600 282;" xml:space="preserve"><g><g><g><path d="M398.6,211.3c-40,0-72.5-32.5-72.5-72.5s32.5-72.5,72.5-72.5s72.5,32.5,72.5,72.5S438.6,211.3,398.6,211.3z M380.5,197     c3.2,1,6.5,1.7,9.9,2.2c-5.4-6.5-8.8-14.5-9.6-23c-1.8-0.9-3.5-1.9-5.2-3c-0.4,2.1-0.7,4.2-0.7,6.3     C375,185.6,376.8,191.8,380.5,197z M393.2,179.8c2.1,8.1,7.5,15.1,14.9,19.2c3-0.5,5.9-1.2,8.7-2c-7.6-3.6-14.1-9.4-18.5-16.8     C396.6,180.1,394.9,180,393.2,179.8z M357.5,183.7c2.2,2,4.6,3.9,7.1,5.6c-0.8-3.2-1.2-6.5-1.2-9.8c0-5.1,0.9-10.2,2.8-15     c-1.1-1.4-2.1-2.8-3-4.3c-4,5.3-6.2,11.8-6.2,18.4C357,180.2,357.2,181.9,357.5,183.7z M411.1,178.2c5.3,6.4,13.2,10.5,21.6,11     c2.8-1.9,5.4-4,7.9-6.4c-8.4,0.2-16.8-2.2-23.9-6.9C414.9,176.9,413,177.6,411.1,178.2z M427.3,168.6c7.6,3.4,16.5,3.6,24.3,0.3     c1.5-2.6,2.8-5.3,3.9-8.1c-7.5,3.7-16.2,5.2-24.6,4C429.7,166.1,428.5,167.4,427.3,168.6z M341.9,160.9c1.2,3.2,2.7,6.2,4.4,9.1     c1.7-8.2,5.9-15.9,12-21.8c-0.5-1.9-0.8-3.9-0.9-5.9C350,146,344.2,152.7,341.9,160.9z M388.4,166.8c3.3,1.2,6.7,1.8,10.2,1.8     c0.8,0,1.7,0,2.7-0.1c0,0,0,0,0,0c4.6-0.4,8.9-1.8,12.8-4.2c0,0,0,0,0,0c3.7-2.3,6.9-5.4,9.3-9c0,0,0,0,0,0     c2.5-3.8,4.1-8.1,4.7-12.7c0.2-1.3,0.2-2.5,0.2-3.7c0-3.1-0.5-6.2-1.4-9.2c0,0,0,0,0,0c-1.4-4.3-3.8-8.3-7-11.6c0,0,0,0,0,0     c-3-3.1-6.8-5.6-10.8-7.1c0,0,0,0,0,0c-4.2-1.6-8.7-2.2-13.4-1.8c-4.4,0.4-8.5,1.8-12.3,4.1c0,0,0,0,0,0     c-3.9,2.3-7.2,5.6-9.7,9.4c0,0,0,0,0,0c-2.4,3.7-3.9,7.8-4.5,12.1c0,0,0,0,0,0c-0.2,1.4-0.3,2.7-0.3,4c0,3.2,0.5,6.4,1.5,9.4     c0,0,0,0,0,0c1.4,4.1,3.7,7.9,6.7,11.1c0,0,0,0,0,0C380.3,162.6,384.2,165.2,388.4,166.8C388.4,166.8,388.4,166.8,388.4,166.8z      M439,147.9c-0.4,1.9-1,3.9-1.7,5.7c8.4-0.1,16.5-3.7,22.1-10.1c0.1-1.6,0.2-3.2,0.2-4.7c0-1.8-0.1-3.6-0.2-5.4     C454.2,140.1,447.1,145.2,439,147.9z M337.9,134.6c-0.1,1.4-0.1,2.8-0.1,4.2c0,1.6,0.1,3.2,0.2,4.8c5.2-6.6,12.3-11.7,20.5-14.3     c0.4-1.7,0.9-3.4,1.5-5C351.5,124.6,343.5,128.3,337.9,134.6z M439,129.9c0.4,1.7,0.6,3.4,0.8,5.1c7.4-3.8,13.1-10.6,15.4-18.8     c-1.1-2.8-2.4-5.5-3.9-8.1C449.5,116.4,445.3,124,439,129.9z M430.9,112.9c1.2,1.6,2.4,3.2,3.4,4.9c4.1-5.3,6.3-11.9,6.3-18.6     c0-1.6-0.1-3.3-0.4-4.9c-2.5-2.3-5.1-4.4-8-6.3c0.8,3.3,1.3,6.8,1.3,10.2C433.5,103.2,432.7,108.2,430.9,112.9z M346,108.2     c-1.7,2.9-3.2,6-4.4,9.2c7.5-3.8,16.1-5.3,24.6-4.2c1.2-1.6,2.6-3,4-4.4C362.7,105.2,353.8,104.9,346,108.2z M416.8,101.7     c1.6,0.8,3.1,1.6,4.5,2.6c0.4-2,0.6-4,0.6-6c0-6.3-1.9-12.5-5.7-17.8c-2.8-0.9-5.8-1.5-8.8-2C412.8,85,416.1,93.1,416.8,101.7z      M357.5,94.3c8.3,0,16.5,2.4,23.5,7.1c1.6-0.7,3.2-1.4,4.8-1.9c-5.4-6.4-13.3-10.4-21.7-10.8c-2.5,1.7-4.8,3.6-7,5.6     C357.2,94.3,357.3,94.3,357.5,94.3z M398.6,97.4c2,0,3.9,0.1,5.8,0.4c-2-8.1-7.3-15.2-14.7-19.3c-3.4,0.5-6.7,1.3-9.9,2.3     c7.7,3.5,14.2,9.3,18.6,16.6C398.6,97.4,398.6,97.4,398.6,97.4z"/></g></g><g><path d="M68.3,270.4c-3.2,0-5.8-2.6-5.8-5.8v-243H40.1c-3.2,0-5.8-2.6-5.8-5.8s2.6-5.8,5.8-5.8h28.2c3.2,0,5.8,2.6,5.8,5.8v248.8    C74.1,267.8,71.5,270.4,68.3,270.4z"/></g><g><path d="M68.3,102.9H47.7c-3.2,0-5.8-2.6-5.8-5.8V67.6c0-3.2,2.6-5.8,5.8-5.8h20.6c3.2,0,5.8,2.6,5.8,5.8v29.5    C74.1,100.3,71.5,102.9,68.3,102.9z M53.5,91.3h9V73.4h-9V91.3z"/></g><g><path d="M67.8,196.9H47.2c-3.2,0-5.8-2.6-5.8-5.8v-70.5c0-3.2,2.6-5.8,5.8-5.8h20.6c3.2,0,5.8,2.6,5.8,5.8v70.5    C73.6,194.3,71,196.9,67.8,196.9z M53,185.3h9v-58.9h-9V185.3z"/></g><g><path d="M141.3,271.9h-33.2c-3.2,0-5.8-2.6-5.8-5.8v-18.6c0-3.2,2.6-5.8,5.8-5.8s5.8,2.6,5.8,5.8v12.8h21.6v-12.8    c0-3.2,2.6-5.8,5.8-5.8s5.8,2.6,5.8,5.8v18.6C147.1,269.3,144.5,271.9,141.3,271.9z"/></g><g><path d="M304.4,271.9H165.1c-3.2,0-5.8-2.6-5.8-5.8v-18.6c0-3.2,2.6-5.8,5.8-5.8s5.8,2.6,5.8,5.8v12.8h127.7v-12.8    c0-3.2,2.6-5.8,5.8-5.8s5.8,2.6,5.8,5.8v18.6C310.2,269.3,307.7,271.9,304.4,271.9z"/></g><g><path d="M546.5,251.5H72.7c-3.2,0-5.8-2.6-5.8-5.8s2.6-5.8,5.8-5.8h471.4l10-10V49.4l-10-10H72.7c-3.2,0-5.8-2.6-5.8-5.8    s2.6-5.8,5.8-5.8h473.8c1.5,0,3,0.6,4.1,1.7L564,42.9c1.1,1.1,1.7,2.6,1.7,4.1v185.4c0,1.5-0.6,3-1.7,4.1l-13.4,13.4    C549.5,250.9,548.1,251.5,546.5,251.5z"/></g><g><path d="M512,231H72.7c-3.2,0-5.8-2.6-5.8-5.8s2.6-5.8,5.8-5.8h436.9l23.8-23.8V83.8L509.6,60H72.7c-3.2,0-5.8-2.6-5.8-5.8    s2.6-5.8,5.8-5.8H512c1.5,0,3,0.6,4.1,1.7l27.2,27.2c1.1,1.1,1.7,2.6,1.7,4.1V198c0,1.5-0.6,3-1.7,4.1l-27.2,27.2    C515,230.4,513.6,231,512,231z"/></g><g><path d="M512,60c-2,0-3.9-1-5-2.8c-1.6-2.8-0.7-6.3,2-8l34.5-20.6c2.8-1.6,6.3-0.7,8,2c1.6,2.8,0.7,6.3-2,8L515,59.2    C514.1,59.7,513,60,512,60z"/></g><g><path d="M539.2,87.2c-1,0-2-0.3-3-0.8c-2.7-1.6-3.6-5.2-2-8L554.9,44c1.6-2.7,5.2-3.6,8-2c2.7,1.6,3.6,5.2,2,8l-20.6,34.4    C543.1,86.2,541.2,87.2,539.2,87.2z"/></g><g><path d="M559.9,238.2c-2,0-3.9-1-5-2.8l-20.6-34.4c-1.6-2.7-0.8-6.3,2-8c2.7-1.7,6.3-0.8,8,2l20.6,34.4c1.6,2.7,0.8,6.3-2,8    C561.9,237.9,560.9,238.2,559.9,238.2z"/></g><g><path d="M546.5,251.5c-1,0-2-0.3-3-0.8l-34.5-20.6c-2.8-1.6-3.7-5.2-2-8c1.6-2.8,5.2-3.7,8-2l34.5,20.6c2.8,1.6,3.7,5.2,2,8    C550.4,250.5,548.5,251.5,546.5,251.5z"/></g><g><path d="M536.4,144.6h-52.8c-3.2,0-5.8-2.6-5.8-5.8c0-3.2,2.6-5.8,5.8-5.8h52.8c3.2,0,5.8,2.6,5.8,5.8    C542.2,142,539.6,144.6,536.4,144.6z"/></g><g><path d="M314.7,144.6H68.3c-3.2,0-5.8-2.6-5.8-5.8c0-3.2,2.6-5.8,5.8-5.8h246.4c3.2,0,5.8,2.6,5.8,5.8    C320.5,142,317.9,144.6,314.7,144.6z"/></g><g><path d="M327.9,231c-3.2,0-5.8-2.6-5.8-5.8c0-32.3-26.3-58.6-58.6-58.6H71.2c-3.2,0-5.8-2.6-5.8-5.8s2.6-5.8,5.8-5.8h192.3    c38.7,0,70.2,31.5,70.2,70.2C333.7,228.4,331.1,231,327.9,231z"/></g><g><path d="M157.7,144.6c-1,0-2-0.3-3-0.8c-2.8-1.6-3.7-5.2-2-8l62.7-105.2c1.6-2.8,5.2-3.7,8-2c2.8,1.6,3.7,5.2,2,8l-62.7,105.2    C161.6,143.6,159.7,144.6,157.7,144.6z"/></g><g><path d="M126.4,144.6c-1,0-2-0.3-3-0.8c-2.8-1.6-3.7-5.2-2-8l62.7-105.2c1.6-2.8,5.2-3.7,8-2c2.8,1.6,3.7,5.2,2,8l-62.7,105.2    C130.3,143.6,128.3,144.6,126.4,144.6z"/></g><g><path d="M193,204.6h-68.5c-3.2,0-5.8-2.6-5.8-5.8s2.6-5.8,5.8-5.8H193c3.2,0,5.8,2.6,5.8,5.8S196.2,204.6,193,204.6z"/></g></g><text x="0" y="297" fill="#000000" font-size="5px" font-weight="bold" font-family="'Helvetica Neue', Helvetica, Arial-Unicode, Arial, Sans-serif">Created by Misha Petrishchev</text><text x="0" y="302" fill="#000000" font-size="5px" font-weight="bold" font-family="'Helvetica Neue', Helvetica, Arial-Unicode, Arial, Sans-serif">from the Noun Project</text></svg>